<svg width="22" height="22" viewBox="0 0 22 22" fill="none" xmlns="http://www.w3.org/2000/svg">
<g id="bath-tub 1">
<g id="g3276">
<g id="g3278">
<g id="Clip path group">
<mask id="mask0_449_19656" style="mask-type:luminance" maskUnits="userSpaceOnUse" x="0" y="0" width="22" height="22">
<g id="clipPath3284">
<path id="path3282" d="M21.25 21.25V0.750002H0.75V21.25H21.25Z" fill="white" stroke="white" stroke-width="1.5"/>
</g>
</mask>
<g mask="url(#mask0_449_19656)">
<g id="g3280">
<g id="g3286">
<path id="path3288" d="M3.26575 18.6162L4.78968 16.3303" stroke="#2E3439" stroke-width="1.5" stroke-miterlimit="10" stroke-linecap="round" stroke-linejoin="round"/>
</g>
<g id="g3290">
<path id="path3292" d="M17.2104 16.3303L18.7344 18.6162" stroke="#2E3439" stroke-width="1.5" stroke-miterlimit="10" stroke-linecap="round" stroke-linejoin="round"/>
</g>
<g id="g3294">
<path id="path3296" d="M20.0236 10.4522V11.7412C20.0236 14.5889 17.715 16.8975 14.8673 16.8975H7.13293C4.28522 16.8975 1.97668 14.5889 1.97668 11.7412V8.83902" stroke="#2E3439" stroke-width="1.5" stroke-miterlimit="10" stroke-linecap="round" stroke-linejoin="round"/>
</g>
<g id="g3306">
<path id="path3308" d="M10.0757 10.4521H20.0236C20.7356 10.4521 21.3126 9.87516 21.3126 9.16309C21.3126 8.45101 20.7356 7.87402 20.0236 7.87402H10.0757C7.44845 7.87402 4.90015 7.33313 2.50034 6.26648C1.84868 5.97777 1.08792 6.27026 0.798822 6.92063C0.509685 7.57105 0.80256 8.3331 1.45298 8.6222C4.18467 9.83658 7.08549 10.4521 10.0757 10.4521Z" stroke="#2E3439" stroke-width="1.5" stroke-miterlimit="10" stroke-linecap="round" stroke-linejoin="round"/>
</g>
</g>
</g>
</g>
</g>
</g>
</g>
</svg>
