<svg width="22" height="22" viewBox="0 0 22 22" fill="none" xmlns="http://www.w3.org/2000/svg">
<g id="piping 1" clip-path="url(#clip0_449_19724)">
<g id="g1566">
<g id="g1568">
<g id="Clip path group">
<g id="g1570">
<g id="g1576">
<path id="path1578" d="M0.859375 6.78906H4.2396V16.0703C4.2396 18.8705 6.50964 21.1406 9.30991 21.1406H12.6901C15.4904 21.1406 17.7604 18.8705 17.7604 16.0703V11.8594H21.1406" stroke="#2E3439" stroke-width="1.5" stroke-miterlimit="10" stroke-linecap="round" stroke-linejoin="round"/>
</g>
<g id="g1580">
<path id="path1582" d="M21.1406 6.78906H17.7604C14.9602 6.78906 12.6901 9.0591 12.6901 11.8594V16.0703H9.30991V6.78906C9.30991 3.98879 7.03983 1.71875 4.2396 1.71875H0.859375" stroke="#2E3439" stroke-width="1.5" stroke-miterlimit="10" stroke-linecap="round" stroke-linejoin="round"/>
</g>
<g id="g1584">
<path id="path1586" d="M0.859375 0.873632V7.63403" stroke="#2E3439" stroke-width="1.5" stroke-miterlimit="10" stroke-linecap="round" stroke-linejoin="round"/>
</g>
<g id="g1588">
<path id="path1590" d="M21.1406 12.7043V5.94394" stroke="#2E3439" stroke-width="1.5" stroke-miterlimit="10" stroke-linecap="round" stroke-linejoin="round"/>
</g>
<g id="g1592">
<path id="path1594" d="M12.6901 14.2083C13.535 14.2083 13.535 14.552 14.38 14.552C15.2251 14.552 15.2251 14.2083 16.0702 14.2083C16.9153 14.2083 16.9153 14.552 17.7604 14.552" stroke="#2E3439" stroke-width="1.5" stroke-miterlimit="10" stroke-linecap="round" stroke-linejoin="round"/>
</g>
<g id="g1596">
<path id="path1598" d="M4.23962 14.2083C5.0846 14.2083 5.0846 14.552 5.92954 14.552C6.77465 14.552 6.77465 14.2083 7.61976 14.2083C8.46483 14.2083 8.46483 14.552 9.30994 14.552" stroke="#2E3439" stroke-width="1.5" stroke-miterlimit="10" stroke-linecap="round" stroke-linejoin="round"/>
</g>
</g>
</g>
</g>
</g>
</g>
<defs>
<clipPath id="clip0_449_19724">
<rect width="22" height="22" fill="white"/>
</clipPath>
</defs>
</svg>
