<svg width="22" height="22" viewBox="0 0 22 22" fill="none" xmlns="http://www.w3.org/2000/svg">
<g id="screw 1" clip-path="url(#clip0_449_19593)">
<g id="g2496">
<g id="g2498">
<g id="Clip path group">
<mask id="mask0_449_19593" style="mask-type:luminance" maskUnits="userSpaceOnUse" x="0" y="0" width="22" height="22">
<g id="clipPath2504">
<path id="path2502" d="M0 1.90735e-06H22V22H0V1.90735e-06Z" fill="white"/>
</g>
</mask>
<g mask="url(#mask0_449_19593)">
<g id="g2500">
<g id="g2506">
<path id="path2508" d="M18.335 11.043H14.0634L11.043 14.0634V18.335L14.0634 21.3555H18.335L21.3555 18.335V14.0634L18.335 11.043Z" stroke="#2E3439" stroke-width="1.5" stroke-miterlimit="10" stroke-linecap="round" stroke-linejoin="round"/>
</g>
</g>
</g>
</g>
</g>
<g id="g2510">
<path id="path2512" d="M17.2671 13.6211H15.1314L13.6211 15.1313V17.2671L15.1314 18.7773H17.2671L18.7773 17.2671V15.1313L17.2671 13.6211Z" stroke="#2E3439" stroke-width="1.5" stroke-miterlimit="10" stroke-linecap="round" stroke-linejoin="round"/>
</g>
<g id="g2514">
<g id="Clip path group_2">
<mask id="mask1_449_19593" style="mask-type:luminance" maskUnits="userSpaceOnUse" x="0" y="0" width="22" height="22">
<g id="clipPath2520">
<path id="path2518" d="M0 1.90735e-06H22V22H0V1.90735e-06Z" fill="white"/>
</g>
</mask>
<g mask="url(#mask1_449_19593)">
<g id="g2516">
<g id="g2522">
<path id="path2524" d="M9.23828 0.644532H0.644531V2.44922L2.79297 4.16797H7.08984L9.23828 2.44922V0.644532Z" stroke="#2E3439" stroke-width="1.5" stroke-miterlimit="10" stroke-linecap="round" stroke-linejoin="round"/>
</g>
<g id="g2526">
<path id="path2528" d="M7.08984 4.16797H2.79297V18.7773L4.94141 21.3555L7.08984 18.7773V4.16797Z" stroke="#2E3439" stroke-width="1.5" stroke-miterlimit="10" stroke-linecap="round" stroke-linejoin="round"/>
</g>
<g id="g2530">
<path id="path2532" d="M1.93359 18.7773L7.94922 17.0586" stroke="#2E3439" stroke-width="1.5" stroke-miterlimit="10" stroke-linecap="round" stroke-linejoin="round"/>
</g>
<g id="g2534">
<path id="path2536" d="M1.93359 15.7695L7.94922 14.0508" stroke="#2E3439" stroke-width="1.5" stroke-miterlimit="10" stroke-linecap="round" stroke-linejoin="round"/>
</g>
<g id="g2538">
<path id="path2540" d="M1.93359 12.7617L7.94922 11.043" stroke="#2E3439" stroke-width="1.5" stroke-miterlimit="10" stroke-linecap="round" stroke-linejoin="round"/>
</g>
<g id="g2542">
<path id="path2544" d="M1.93359 9.75391L7.94922 8.03516" stroke="#2E3439" stroke-width="1.5" stroke-miterlimit="10" stroke-linecap="round" stroke-linejoin="round"/>
</g>
<g id="g2546">
<path id="path2548" d="M1.93359 7.17578L7.94922 5.45703" stroke="#2E3439" stroke-width="1.5" stroke-miterlimit="10" stroke-linecap="round" stroke-linejoin="round"/>
</g>
</g>
</g>
</g>
</g>
</g>
</g>
<defs>
<clipPath id="clip0_449_19593">
<rect width="22" height="22" fill="white"/>
</clipPath>
</defs>
</svg>
