<svg width="22" height="22" viewBox="0 0 22 22" fill="none" xmlns="http://www.w3.org/2000/svg">
<g id="tank 1">
<g id="g3030">
<g id="g3032">
<g id="Clip path group">
<mask id="mask0_449_18613" style="mask-type:luminance" maskUnits="userSpaceOnUse" x="0" y="0" width="22" height="22">
<g id="clipPath3038">
<path id="path3036" d="M0 1.90735e-06H22V22H0V1.90735e-06Z" fill="white"/>
</g>
</mask>
<g mask="url(#mask0_449_18613)">
<g id="g3034">
<g id="g3040">
<path id="path3042" d="M0.644531 9.79688C1.93888 9.79688 1.93888 11 3.23327 11C4.5277 11 4.5277 9.79688 5.82209 9.79688C7.11653 9.79688 7.11653 11 8.41092 11C9.70526 11 9.70527 9.79688 10.9997 9.79688C12.294 9.79688 12.294 11 13.5885 11C14.883 11 14.883 9.79688 16.1774 9.79688C17.4719 9.79688 17.4719 11 18.7664 11C20.0609 11 20.0609 9.79688 21.3555 9.79688" stroke="#2E3439" stroke-width="1.4" stroke-miterlimit="10"/>
</g>
<g id="g3044">
<path id="path3046" d="M19.8762 19.8762H2.12398L0.644653 18.3968V6.56205L2.12398 5.08273H19.8762L21.3556 6.56205V18.3968L19.8762 19.8762Z" stroke="#2E3439" stroke-width="1.4" stroke-miterlimit="10"/>
</g>
<g id="g3048">
<path id="path3050" d="M11.7396 2.12406V5.08276" stroke="#2E3439" stroke-width="1.4" stroke-miterlimit="10"/>
</g>
<g id="g3052">
<path id="path3054" d="M16.1777 5.08276V2.12406" stroke="#2E3439" stroke-width="1.4" stroke-miterlimit="10"/>
</g>
<g id="g3056">
<path id="path3058" d="M10.2841 2.12402H17.6334" stroke="#2E3439" stroke-width="1.4" stroke-miterlimit="10"/>
</g>
</g>
</g>
</g>
</g>
</g>
</g>
</svg>
