<svg width="22" height="22" viewBox="0 0 22 22" fill="none" xmlns="http://www.w3.org/2000/svg">
<g id="tools 1" clip-path="url(#clip0_449_19194)">
<g id="Group">
<g id="Group_2">
<g id="Clip path group">
<mask id="mask0_449_19194" style="mask-type:luminance" maskUnits="userSpaceOnUse" x="0" y="0" width="22" height="22">
<g id="SVGID_00000135678559617498654630000006343471777792216482_">
<path id="Vector" d="M5.74961 0H22V15.3156L14.0384 7.35397L12.5192 8.87313L8.2173 4.57127L8.58305 2.21066L5.74961 0ZM7.35397 14.0384L8.87313 12.5192L4.57127 8.2173L2.21066 8.58305L0 5.74961V22H15.3156L7.35397 14.0384Z" fill="white"/>
</g>
</mask>
<g mask="url(#mask0_449_19194)">
<path id="Vector_2" d="M4.52699 20.5114C3.68799 21.3504 2.32764 21.3504 1.48863 20.5114C0.649623 19.6724 0.649623 18.3121 1.48863 17.473L10.1373 8.82431C10.7046 8.25708 10.9702 7.45885 10.8699 6.66298C10.6775 5.13665 11.1672 3.54079 12.3392 2.36873C13.8111 0.896879 15.9511 0.501996 17.7826 1.18185L18.085 1.48426L15.4016 4.1677C14.7201 4.84919 14.7071 5.97755 15.4015 6.64584C16.0744 7.29351 17.1449 7.28569 17.8082 6.62238L20.5157 3.91492L20.8181 4.21733C21.498 6.04888 21.1031 8.18885 19.6313 9.66074C18.4592 10.8328 16.8634 11.3225 15.337 11.1301C14.5412 11.0297 13.7429 11.2954 13.1757 11.8626L4.52699 20.5114Z" stroke="#2E3439" stroke-width="1.5" stroke-miterlimit="10"/>
</g>
</g>
</g>
<path id="Vector_3" d="M5.46923 5.46923L12.5191 12.5191M5.46923 5.46923L3.31203 5.80345L1.15479 3.03854L3.03854 1.15479L5.80349 3.31199L5.46923 5.46923ZM11 14.0383L17.473 20.5113C18.312 21.3504 19.6723 21.3504 20.5113 20.5113C21.3504 19.6723 21.3504 18.312 20.5113 17.473L14.0383 11L11 14.0383Z" stroke="#2E3439" stroke-width="1.5" stroke-miterlimit="10"/>
</g>
</g>
<defs>
<clipPath id="clip0_449_19194">
<rect width="22" height="22" fill="white"/>
</clipPath>
</defs>
</svg>
