<svg width="22" height="22" viewBox="0 0 22 22" fill="none" xmlns="http://www.w3.org/2000/svg">
<g id="valve 1" clip-path="url(#clip0_449_19761)">
<g id="Group">
<path id="Vector" d="M4.92761 9.78345H17.0725M17.0725 20.0445H4.92761" stroke="#2E3439" stroke-width="1.5" stroke-miterlimit="10" stroke-linecap="round" stroke-linejoin="round"/>
<path id="Vector_2" d="M1.6493 8.25757H3.70978C4.37957 8.25757 4.92755 8.80555 4.92755 9.47535V20.3525C4.92755 21.0223 4.37957 21.5703 3.70978 21.5703H1.6493C0.979499 21.5703 0.431519 21.0223 0.431519 20.3525V9.47535C0.431519 8.80559 0.979499 8.25757 1.6493 8.25757Z" stroke="#2E3439" stroke-width="1.5" stroke-miterlimit="10" stroke-linecap="round" stroke-linejoin="round"/>
<path id="Vector_3" d="M18.2902 8.25757H20.3506C21.0204 8.25757 21.5684 8.80555 21.5684 9.47535V20.3525C21.5684 21.0223 21.0204 21.5703 20.3506 21.5703H18.2902C17.6204 21.5703 17.0724 21.0223 17.0724 20.3525V9.47535C17.0724 8.80559 17.6204 8.25757 18.2902 8.25757Z" stroke="#2E3439" stroke-width="1.5" stroke-miterlimit="10" stroke-linecap="round" stroke-linejoin="round"/>
<path id="Vector_4" d="M5.74711 0.429688H16.2529C16.8289 0.429688 17.3014 0.902172 17.3014 1.47941C17.3014 2.05666 16.8289 2.52794 16.2529 2.52794H5.74711C5.16987 2.52794 4.69739 2.05666 4.69739 1.47941C4.69739 0.902172 5.16987 0.429688 5.74711 0.429688Z" stroke="#2E3439" stroke-width="1.5" stroke-miterlimit="10" stroke-linecap="round" stroke-linejoin="round"/>
<path id="Vector_5" d="M14.6516 9.7833V7.49023H7.34851V9.7833" stroke="#2E3439" stroke-width="1.5" stroke-miterlimit="10" stroke-linecap="round" stroke-linejoin="round"/>
<path id="Vector_6" d="M12.0491 4.62744V7.49045M9.95081 7.49045V4.62744" stroke="#2E3439" stroke-width="1.5" stroke-miterlimit="10" stroke-linecap="round" stroke-linejoin="round"/>
<path id="Vector_7" d="M13.2207 2.52783V4.62724H8.77942V2.52783" stroke="#2E3439" stroke-width="1.5" stroke-miterlimit="10" stroke-linecap="round" stroke-linejoin="round"/>
</g>
</g>
<defs>
<clipPath id="clip0_449_19761">
<rect width="22" height="22" fill="white"/>
</clipPath>
</defs>
</svg>
