<svg width="22" height="22" viewBox="0 0 22 22" fill="none" xmlns="http://www.w3.org/2000/svg">
<g id="water-heater 1" clip-path="url(#clip0_449_19348)">
<g id="XMLID_23_">
<path id="XMLID_39_" d="M10.9999 6.90198C11.5955 6.90198 12.0784 6.41915 12.0784 5.82355C12.0784 5.22795 11.5955 4.74512 10.9999 4.74512C10.4043 4.74512 9.92151 5.22795 9.92151 5.82355C9.92151 6.41915 10.4043 6.90198 10.9999 6.90198Z" stroke="#2E3439" stroke-width="1.5" stroke-miterlimit="10" stroke-linecap="round" stroke-linejoin="round"/>
<path id="XMLID_37_" d="M17.0392 0.431396H4.96074C4.24596 0.431396 3.66663 1.01073 3.66663 1.72551V17.2549C3.66663 17.9697 4.24596 18.549 4.96074 18.549H17.0392C17.754 18.549 18.3333 17.9697 18.3333 17.2549V1.72551C18.3333 1.01073 17.754 0.431396 17.0392 0.431396Z" stroke="#2E3439" stroke-width="1.5" stroke-miterlimit="10" stroke-linecap="round" stroke-linejoin="round"/>
<path id="XMLID_298_" d="M7.72153 20.2746H6.51368C6.13248 20.2746 5.82349 19.9656 5.82349 19.5844V18.5491H8.41172V19.5844C8.41172 19.9656 8.10273 20.2746 7.72153 20.2746Z" stroke="#2E3439" stroke-width="1.5" stroke-miterlimit="10" stroke-linecap="round" stroke-linejoin="round"/>
<path id="XMLID_304_" d="M7.11755 20.2744V21.5685" stroke="#2E3439" stroke-width="1.5" stroke-miterlimit="10" stroke-linecap="round" stroke-linejoin="round"/>
<path id="XMLID_36_" d="M15.4862 20.2746H14.2783C13.8971 20.2746 13.5881 19.9656 13.5881 19.5844V18.5491H16.1764V19.5844C16.1764 19.9656 15.8674 20.2746 15.4862 20.2746Z" stroke="#2E3439" stroke-width="1.5" stroke-miterlimit="10" stroke-linecap="round" stroke-linejoin="round"/>
<path id="XMLID_35_" d="M14.8823 20.2744V21.5685" stroke="#2E3439" stroke-width="1.5" stroke-miterlimit="10" stroke-linecap="round" stroke-linejoin="round"/>
<path id="XMLID_30_" d="M11 15.5293C8.61758 15.5293 6.68628 13.598 6.68628 11.2156V3.01953H15.3137V11.2156C15.3137 13.598 13.3824 15.5293 11 15.5293Z" stroke="#2E3439" stroke-width="1.5" stroke-miterlimit="10" stroke-linecap="round" stroke-linejoin="round"/>
<path id="XMLID_28_" d="M11 13.8039C12.4294 13.8039 13.5882 12.6451 13.5882 11.2157C13.5882 9.78623 12.4294 8.62744 11 8.62744C9.57054 8.62744 8.41174 9.78623 8.41174 11.2157C8.41174 12.6451 9.57054 13.8039 11 13.8039Z" stroke="#2E3439" stroke-width="1.5" stroke-miterlimit="10" stroke-linecap="round" stroke-linejoin="round"/>
<path id="XMLID_26_" d="M3.66663 3.01953H18.3333" stroke="#2E3439" stroke-width="1.5" stroke-miterlimit="10" stroke-linecap="round" stroke-linejoin="round"/>
<path id="XMLID_25_" d="M11 8.62744V10.3529" stroke="#2E3439" stroke-width="1.5" stroke-miterlimit="10" stroke-linecap="round" stroke-linejoin="round"/>
</g>
</g>
<defs>
<clipPath id="clip0_449_19348">
<rect width="22" height="22" fill="white"/>
</clipPath>
</defs>
</svg>
