<svg width="22" height="22" viewBox="0 0 22 22" fill="none" xmlns="http://www.w3.org/2000/svg">
<g id="water-pump 1" clip-path="url(#clip0_449_19375)">
<g id="Group">
<path id="Vector" d="M0.827965 18.6155H16.4255C16.6448 18.6155 16.8238 18.7945 16.8238 19.0138V20.3815C16.8238 20.5996 16.6448 20.7798 16.4255 20.7798H0.827965C0.608738 20.7798 0.429688 20.5996 0.429688 20.3815V19.0138C0.429688 18.7945 0.608738 18.6155 0.827965 18.6155Z" stroke="#2E3439" stroke-width="1.5" stroke-miterlimit="10" stroke-linecap="round" stroke-linejoin="round"/>
<path id="Vector_2" d="M5.71205 15.1333H11.5426L12.467 18.6155H4.78638L5.71205 15.1333Z" stroke="#2E3439" stroke-width="1.5" stroke-miterlimit="10" stroke-linecap="round" stroke-linejoin="round"/>
<path id="Vector_3" d="M4.33456 3.6355H15.0553C16.0285 3.6355 16.8238 4.43085 16.8238 5.40401V13.3636C16.8238 14.3367 16.0285 15.1333 15.0553 15.1333H4.33456C2.18724 15.1333 0.429688 13.3758 0.429688 11.2285V7.54041C0.429688 5.39185 2.18724 3.6355 4.33456 3.6355Z" stroke="#2E3439" stroke-width="1.5" stroke-miterlimit="10" stroke-linecap="round" stroke-linejoin="round"/>
<path id="Vector_4" d="M16.8239 6.21875H17.9737C18.6058 6.21875 19.1235 6.73639 19.1235 7.36855V11.4001C19.1235 12.0323 18.6058 12.5499 17.9737 12.5499H16.8239" stroke="#2E3439" stroke-width="1.5" stroke-miterlimit="10" stroke-linecap="round" stroke-linejoin="round"/>
<path id="Vector_5" d="M19.1234 9.38452H21.5704" stroke="#2E3439" stroke-width="1.5" stroke-miterlimit="10" stroke-linecap="round" stroke-linejoin="round"/>
<path id="Vector_6" d="M6.8595 12.2589H10.3941M6.8595 6.51001H10.3941M6.8595 9.38445H10.3941" stroke="#2E3439" stroke-width="1.5" stroke-miterlimit="10" stroke-linecap="round" stroke-linejoin="round"/>
<path id="Vector_7" d="M4.33459 3.6355V15.1333" stroke="#2E3439" stroke-width="1.5" stroke-miterlimit="10" stroke-linecap="round" stroke-linejoin="round"/>
<path id="Vector_8" d="M12.9202 15.1333V3.6355" stroke="#2E3439" stroke-width="1.5" stroke-miterlimit="10" stroke-linecap="round" stroke-linejoin="round"/>
<path id="Vector_9" d="M11.0007 1.22021H6.25415V3.63549H11.0007V1.22021Z" stroke="#2E3439" stroke-width="1.5" stroke-miterlimit="10" stroke-linecap="round" stroke-linejoin="round"/>
<path id="Vector_10" d="M5.24683 1.22021H12.0067" stroke="#2E3439" stroke-width="1.5" stroke-miterlimit="10" stroke-linecap="round" stroke-linejoin="round"/>
</g>
</g>
<defs>
<clipPath id="clip0_449_19375">
<rect width="22" height="22" fill="white"/>
</clipPath>
</defs>
</svg>
